<svg xmlns="http://www.w3.org/2000/svg" viewBox="0 0 400 400">
  <path fill="#3178C6" d="M0 0h400v400H0V0zm209.69 137.69h-33.39v-20.7h87.09v20.7h-33.39v131.64H209.69zm-29.42 45.2l-.19.25c-4.14 5.74-10.4 11.65-19.2 11.65-11.21 0-18.18-8.36-18.18-18.35V165.22h-28.89v131.67h25.77v-75.79c0-11.41 5.21-21.25 15.16-21.25 5.28 0 8.42 2.95 10.14 5.01V165.22h25.77v106.59zM349.17 203.46h-40.17l-4.84-15.22h-27.23v15.22h-24.17V165.22h60.44c16.94 0 30.02 11.13 30.02 26.21 0 11.49-8.07 18.03-17.62 21.03l19.42 31.12zm-64.8-38.76c-7.1 0-12.36 4.58-14.77 9.12V165.22h28.89v9.12c0 6.1 3.76 11.83 14.68 11.83 8.4 0 12.79-3.81 14.21-7.41v26.62c-2.17 4.47-6.79 8.37-14.21 8.37z"/>
</svg>

